PathFileType	4	(X/Y/Z)	/Users/itak/Documents/Research/Walk-IL/dataset/trc/00500_00183.trc
DataRate	CameraRate	NumFrames	NumMarkers	Units	OrigDataRate	OrigDataStartFrame	OrigNumFrames
100.000000	100.000000	4	53	mm	100.000000	538	718
Frame#	Time	RPSI			LPSI			L3			STRN			T10			C7			CLAV			RBAK			LBAK			LSHO			LUPA			LAEL			LAOL			LWTS			LWPS			LFRA			LIFD			LHPS			LHTS			RSHO			RUPA			RAEL			RAOL			RWTS			RWPS			RFRA			RIFD			RHTS			RHPS			RBHD			LFHD			RFHD			LBHD			LHIP			RHIP			RASI			LASI			LKNE			LTHI			LANK			LTIP			LTOE			LMT1			LMT5			LHEE			RKNE			RTHI			RANK			RTIP			RTOE			RMT1			RMT5			RHEE			
		X1	Y1	Z1	X2	Y2	Z2	X3	Y3	Z3	X4	Y4	Z4	X5	Y5	Z5	X6	Y6	Z6	X7	Y7	Z7	X8	Y8	Z8	X9	Y9	Z9	X10	Y10	Z10	X11	Y11	Z11	X12	Y12	Z12	X13	Y13	Z13	X14	Y14	Z14	X15	Y15	Z15	X16	Y16	Z16	X17	Y17	Z17	X18	Y18	Z18	X19	Y19	Z19	X20	Y20	Z20	X21	Y21	Z21	X22	Y22	Z22	X23	Y23	Z23	X24	Y24	Z24	X25	Y25	Z25	X26	Y26	Z26	X27	Y27	Z27	X28	Y28	Z28	X29	Y29	Z29	X30	Y30	Z30	X31	Y31	Z31	X32	Y32	Z32	X33	Y33	Z33	X34	Y34	Z34	X35	Y35	Z35	X36	Y36	Z36	X37	Y37	Z37	X38	Y38	Z38	X39	Y39	Z39	X40	Y40	Z40	X41	Y41	Z41	X42	Y42	Z42	X43	Y43	Z43	X44	Y44	Z44	X45	Y45	Z45	X46	Y46	Z46	X47	Y47	Z47	X48	Y48	Z48	X49	Y49	Z49	X50	Y50	Z50	X51	Y51	Z51	X52	Y52	Z52	X53	Y53	Z53	

539	5.38	385.6651000976562	958.9808349609375	245.8070983886719	451.6729125976562	956.4805908203125	140.8646697998047	413.6911926269531	1027.280517578125	192.1761932373047	601.08935546875	1188.025756835938	290.57763671875	394.2409973144531	1130.657958984375	191.94873046875	428.7615661621094	1360.7119140625	216.8844299316406	568.1260375976562	1282.636352539062	276.9369812011719	349.3054504394531	1237.632690429688	272.6776123046875	441.8538818359375	1308.578125	125.2453918457031	559.231201171875	1354.225830078125	98.72196197509766	577.4571533203125	1230.232543945312	35.98003387451172	605.6626586914062	1021.108215332031	14.3736400604248	510.3676452636719	1009.302734375	38.44863891601562	672.7489624023438	837.228759765625	89.55118560791016	628.3048095703125	799.813232421875	15.31953716278076	624.6874389648438	940.0726318359375	20.48665237426758	677.8582763671875	680.68505859375	100.0664138793945	649.9710083007812	746.9293212890625	31.20731925964355	694.6831665039062	760.4949951171875	76.98067474365234	418.5528869628906	1351.596801757812	374.4917602539062	381.0289611816406	1283.853393554688	420.0814208984375	374.5115356445312	1016.812133789062	467.6436157226562	340.106201171875	999.0966186523438	413.402587890625	488.77490234375	818.8136596679688	474.57861328125	403.5944519042969	794.6102905273438	494.7261352539062	378.8548583984375	962.3768920898438	476.6505737304688	498.0286865234375	660.4690551757812	477.8646545410156	499.7222290039062	726.6143188476562	503.8555603027344	428.2210388183594	721.38671875	503.8864135742188	448.0348205566406	1521.16015625	315.3349304199219	631.2188110351562	1560.950317382812	246.0914154052734	573.1155395507812	1558.731689453125	359.201904296875	508.1717224121094	1522.498168945312	166.2961730957031	616.5379638671875	886.254638671875	90.84812164306641	404.1079406738281	858.0845336914062	406.8679504394531	526.0059204101562	900.3845825195312	406.272705078125	651.49462890625	920.892578125	199.3426208496094	682.3021240234375	476.2614440917969	187.3850860595703	671.70947265625	629.0702514648438	145.9290313720703	652.4632568359375	43.08220672607422	181.1472320556641	686.2941284179688	321.2425537109375	182.4888153076172	800.7184448242188	31.65831565856934	328.3733825683594	716.7702026367188	40.29406356811523	319.9740600585938	752.725341796875	37.43601226806641	223.7922668457031	584.902587890625	41.78123474121094	217.9950561523438	394.554443359375	475.5238037109375	365.8576965332031	421.7664794921875	727.3231811523438	416.2326049804688	146.5016632080078	124.261589050293	253.9512786865234	345.3492736816406	340.42431640625	336.3595581054688	314.6537170410156	36.17974090576172	279.1809387207031	278.9337158203125	59.88077926635742	220.397705078125	225.2320098876953	57.65153503417969	302.466552734375	122.8857345581055	148.6039428710938	192.4350891113281	
540	5.39	391.2061157226562	959.69287109375	245.3098754882812	457.8718872070312	957.294677734375	140.7053375244141	419.8025817871094	1028.06396484375	192.0113983154297	606.9410400390625	1188.754150390625	290.8939208984375	400.3503723144531	1131.371948242188	191.7852783203125	434.6658325195312	1361.45263671875	216.8495330810547	573.95556640625	1283.364135742188	277.2112121582031	355.1570434570312	1238.325805664062	272.3858947753906	448.0714111328125	1309.35791015625	125.2299957275391	565.48828125	1355.122802734375	99.04470825195312	583.86376953125	1231.15185546875	36.24187088012695	612.1734619140625	1022.073303222656	14.45279979705811	516.9046630859375	1010.169799804688	38.52484512329102	679.4834594726562	838.2658081054688	89.503173828125	634.9343872070312	800.7752075195312	15.35152244567871	631.2059936523438	941.0322875976562	20.52484893798828	684.4530639648438	681.8172607421875	100.3423843383789	656.60302734375	747.8843994140625	31.27581024169922	701.3912963867188	761.4935913085938	76.94415283203125	424.1073608398438	1352.24951171875	374.3902893066406	386.4920959472656	1284.523803710938	419.8800964355469	379.6274719238281	1017.576171875	467.6106872558594	345.5748291015625	999.7825317382812	413.2362976074219	494.0058898925781	819.7435913085938	475.4366149902344	408.7141723632812	795.45751953125	495.1877136230469	383.9659423828125	963.1663208007812	476.7387390136719	503.4622497558594	661.3687133789062	478.9737243652344	504.8892822265625	727.560302734375	504.859130859375	433.4207458496094	722.275390625	504.6110229492188	453.244384765625	1521.649658203125	315.5355529785156	636.5947875976562	1562.01318359375	247.0389556884766	578.07470703125	1559.434936523438	359.9523620605469	513.8297119140625	1523.375610351562	166.8143005371094	622.6619262695312	886.7432250976562	91.29287719726562	409.0548095703125	858.640380859375	406.4899291992188	530.9619140625	901.039306640625	406.2685241699219	657.3536987304688	921.3081665039062	199.8851776123047	685.6803588867188	476.0484619140625	187.7008209228516	676.2545776367188	629.1122436523438	146.4478454589844	652.5671997070312	43.0217170715332	181.1651458740234	688.6314697265625	320.9665832519531	182.7841644287109	800.7593383789062	31.44407081604004	328.5218811035156	716.8455810546875	40.18979263305664	320.0126342773438	752.7980346679688	37.21871566772461	223.8535614013672	585.0303344726562	41.91389846801758	217.9723052978516	402.4784545898438	475.5673217773438	368.775634765625	427.2871704101562	727.9046630859375	416.4305725097656	150.1212158203125	128.8229217529297	255.7612609863281	352.343505859375	341.3373413085938	339.6325073242188	315.6119079589844	35.68325424194336	279.6859741210938	280.7290344238281	61.45109176635742	221.3230438232422	226.9012145996094	59.31256484985352	303.4076843261719	127.275749206543	154.6177978515625	194.6158752441406	
541	5.4	396.5441589355469	960.4094848632812	244.7222747802734	463.9310302734375	958.1015625	140.4925994873047	425.76806640625	1028.859985351562	191.7839813232422	612.6640014648438	1189.44140625	291.2677612304688	406.3762512207031	1132.118530273438	191.5607604980469	440.53125	1362.204711914062	216.7827301025391	579.6943359375	1284.059692382812	277.525146484375	360.8951110839844	1239.042358398438	272.0201416015625	454.2813110351562	1310.14990234375	125.2023849487305	571.76416015625	1356.014526367188	99.43258666992188	590.2881469726562	1232.078491210938	36.54705810546875	618.6542358398438	1023.047485351562	14.54542636871338	523.4058227539062	1011.066467285156	38.57809829711914	686.1629028320312	839.3004150390625	89.47752380371094	641.4801635742188	801.7320556640625	15.42116928100586	637.683837890625	942.0035400390625	20.58594703674316	690.95068359375	682.9550170898438	100.6617202758789	663.1660766601562	748.8295288085938	31.38169479370117	708.031005859375	762.494384765625	76.93631744384766	429.5240173339844	1352.895629882812	374.2584533691406	391.8013916015625	1285.185424804688	419.6239013671875	384.6432189941406	1018.329772949219	467.557373046875	350.9078369140625	1000.438110351562	413.0495300292969	499.1936950683594	820.7142333984375	476.3026123046875	413.8023071289062	796.29833984375	495.6372680664062	388.9774475097656	963.9427490234375	476.8016662597656	508.9419555664062	662.3161010742188	480.1008605957031	510.0515747070312	728.5491333007812	505.8726196289062	438.6175842285156	723.1676025390625	505.3365173339844	458.3722534179688	1522.1142578125	315.7337341308594	641.8961181640625	1563.074584960938	248.0061187744141	582.9498901367188	1560.138916015625	360.7131652832031	519.4425048828125	1524.221069335938	167.3434753417969	628.636962890625	887.186279296875	91.77255249023438	413.7173767089844	859.2141723632812	406.0365600585938	535.6300659179688	901.6969604492188	406.2532348632812	663.0172729492188	921.6681518554688	200.4771423339844	689.0094604492188	475.8439636230469	188.0748443603516	680.732666015625	629.1688842773438	147.0272521972656	652.6851196289062	42.95956802368164	181.1544494628906	690.9392700195312	320.7219543457031	183.1054077148438	800.7677612304688	31.36441993713379	328.634033203125	716.9038696289062	40.13266372680664	320.0403137207031	752.8524169921875	37.03235626220703	223.8961944580078	585.1544189453125	42.03869247436523	217.9189910888672	410.4930114746094	475.5653381347656	371.9826049804688	432.5530090332031	728.50927734375	416.6153564453125	154.0117645263672	133.6109008789062	257.6371154785156	359.5519714355469	342.3021545410156	343.0932312011719	316.7552795410156	35.07230377197266	280.2788391113281	282.751953125	63.17307281494141	222.4083709716797	228.6831665039062	61.23905563354492	304.389404296875	131.9539337158203	160.8112640380859	196.8522338867188	
542	5.41	401.6832885742188	961.1198120117188	244.0345153808594	469.833984375	958.8884887695312	140.2205505371094	431.5644836425781	1029.663330078125	191.4822845458984	618.2493286132812	1190.0771484375	291.7055969238281	412.3250732421875	1132.895141601562	191.2641906738281	446.3553161621094	1362.96142578125	216.6899566650391	585.3359985351562	1284.71435546875	277.8867492675781	366.5198364257812	1239.778442382812	271.5775146484375	460.4857788085938	1310.953491210938	125.1645736694336	578.060302734375	1356.892700195312	99.89363098144531	596.7342529296875	1233.009399414062	36.90133666992188	625.1121215820312	1024.0263671875	14.66435146331787	529.8662109375	1011.992614746094	38.59849548339844	692.7682495117188	840.3272705078125	89.49929809570312	647.953125	802.6884765625	15.53551578521729	644.1328735351562	942.9884643554688	20.68461799621582	697.3613891601562	684.0843505859375	101.0237197875977	669.6769409179688	749.7717895507812	31.52852058410645	714.5987548828125	763.4978637695312	76.98248291015625	434.8020935058594	1353.531860351562	374.0965270996094	396.9500732421875	1285.83837890625	419.3162231445312	389.5559387207031	1019.069274902344	467.4815063476562	356.0984191894531	1001.070617675781	412.84228515625	504.3298645019531	821.7194213867188	477.1612243652344	418.8555297851562	797.1354370117188	496.0764770507812	393.8880920410156	964.703857421875	476.8375854492188	514.4470825195312	663.3128662109375	481.2491149902344	515.2042236328125	729.5817260742188	506.8927612304688	443.7962951660156	724.0617065429688	506.0678405761719	463.4202880859375	1522.5478515625	315.9332275390625	647.11572265625	1564.133178710938	248.9910125732422	587.7403564453125	1560.841918945312	361.4806518554688	525.010986328125	1525.028930664062	167.8788909912109	634.4692993164062	887.58056640625	92.28573608398438	418.0935363769531	859.8145751953125	405.5135192871094	540.0122680664062	902.36474609375	406.2247924804688	668.4786987304688	921.9697265625	201.1133728027344	692.2498168945312	475.6390686035156	188.5053863525391	685.127685546875	629.2265014648438	147.6682586669922	652.8126831054688	42.90721893310547	181.1377410888672	693.1856079101562	320.4946899414062	183.4578704833984	800.7676391601562	31.3568229675293	328.7297058105469	716.9527587890625	40.10099029541016	320.0685424804688	752.8972778320312	36.87553787231445	223.9322662353516	585.2716674804688	42.15421295166016	217.8532867431641	418.5816650390625	475.5557556152344	375.439453125	437.5634460449219	729.1429443359375	416.7967834472656	158.1796112060547	138.6036682128906	259.5658874511719	366.9522399902344	343.3367004394531	346.71826171875	318.0867004394531	34.36823654174805	281.0037231445312	285.04443359375	65.03572845458984	223.69287109375	230.6054534912109	63.4613037109375	305.4338684082031	136.9332733154297	167.1266479492188	199.1075439453125	
